<svg width="16" height="16" viewBox="0 0 16 16" fill="none" xmlns="http://www.w3.org/2000/svg">
<path fill-rule="evenodd" clip-rule="evenodd" d="M10.4285 9C10.4102 9 10 9 10 9.50002V11H2C1.44772 11 1 11.4477 1 12V13C1 13.5523 1.44771 14 2 14H10V15.5C10 16 10.3816 16 10.4285 16C10.6359 16 11.0099 15.9113 11.2172 15.7363L14.6207 13.0833C15.1264 12.6566 15.1264 12.3434 14.6207 11.9167L11.2172 9.26366C11.0099 9.08874 10.6359 9 10.4285 9Z" fill="#BA4C3F"/>
<path fill-rule="evenodd" clip-rule="evenodd" d="M5.5715 0C5.58984 0 6 0 6 0.500015V2H14C14.5523 2 15 2.44772 15 3V4C15 4.55228 14.5523 5 14 5H6V6.5C6 7 5.61841 7 5.57151 7C5.36409 7 4.99012 6.91126 4.78279 6.73634L1.37934 4.08333C0.873555 3.65662 0.873555 3.34338 1.37934 2.91667L4.78279 0.26366C4.99012 0.0887439 5.36409 0 5.5715 0Z" fill="#333333"/>
</svg>
