<svg width="48" height="48" viewBox="0 0 48 48" fill="none" xmlns="http://www.w3.org/2000/svg">
<rect width="48" height="48" rx="4" fill="#B30B00"/>
<path d="M15 18C15 16.8954 15.8954 16 17 16H33L38 21V41C38 42.1046 37.1046 43 36 43H17C15.8954 43 15 42.1046 15 41V18Z" fill="white"/>
<rect x="18.5" y="26" width="1.5" height="9" fill="#B30B00"/>
<rect x="30.5" y="26" width="1.5" height="9" fill="#B30B00"/>
<rect x="31" y="26" width="3.5" height="1.5" fill="#B30B00"/>
<rect x="31" y="29.5" width="3.5" height="1.5" fill="#B30B00"/>
<path d="M19.25 26.75H22C22.1381 26.75 22.25 26.8619 22.25 27V31C22.25 31.1381 22.1381 31.25 22 31.25H19.25V26.75Z" stroke="#B30B00" stroke-width="1.5"/>
<path d="M25.25 26.75H27C27.6904 26.75 28.25 27.3096 28.25 28V33C28.25 33.6904 27.6904 34.25 27 34.25H25.25V26.75Z" stroke="#B30B00" stroke-width="1.5"/>
<path d="M33 16L35.5 18.5L38 21H34C33.4477 21 33 20.5523 33 20V16Z" fill="#CCCCCC"/>
<path opacity="0.6" fill-rule="evenodd" clip-rule="evenodd" d="M10 8C8.89543 8 8 8.89543 8 10V27C8 28.1046 8.89543 29 10 29H12V16C12 14.3431 13.3431 13 15 13H25V11L22 8H10Z" fill="white"/>
<path d="M30 6H32C35.3137 6 38 8.68629 38 12V15" stroke="white" stroke-width="2" stroke-linecap="round"/>
<path d="M35 13L38 16L41 13" stroke="white" stroke-width="2" stroke-linecap="round"/>
</svg>
