<svg width="64" height="64" viewBox="0 0 64 64" fill="none" xmlns="http://www.w3.org/2000/svg">
<path d="M1.5 14C1.5 13.1716 2.17157 12.5 3 12.5H15.6967C16.0964 12.5 16.4796 12.6596 16.7612 12.9433L24.0646 20.3007C24.3435 20.5817 24.5 20.9615 24.5 21.3574V42C24.5 42.8284 23.8284 43.5 23 43.5H3C2.17157 43.5 1.5 42.8284 1.5 42V14Z" fill="#F2F2F2" stroke="#333333"/>
<rect x="24" y="22" width="1" height="20" fill="#F2F2F2"/>
<rect x="24" y="21" width="1" height="2" rx="0.5" fill="#333333"/>
<path d="M24 41.5C24 41.2239 24.2239 41 24.5 41C24.7761 41 25 41.2239 25 41.5V42C25 42.2761 24.7761 43 24.5 43C24.2239 43 24 42.7761 24 42.5V41.5Z" fill="#333333"/>
<path d="M16 12L25 21H19C17.3431 21 16 19.6569 16 18V12Z" fill="#333333"/>
<path d="M29 12C29 10.8954 29.8954 10 31 10H50.1716C50.702 10 51.2107 10.2107 51.5858 10.5858L62.4142 21.4142C62.7893 21.7893 63 22.298 63 22.8284V53C63 54.1046 62.1046 55 61 55H31C29.8954 55 29 54.1046 29 53V12Z" fill="#BA4C3F" fill-opacity="0.1"/>
<path fill-rule="evenodd" clip-rule="evenodd" d="M61 54H31C30.4477 54 30 53.5523 30 53V42H29V53C29 54.1046 29.8954 55 31 55H61C62.1046 55 63 54.1046 63 53V22.8284C63 22.298 62.7893 21.7893 62.4142 21.4142L51.5858 10.5858C51.2107 10.2107 50.702 10 50.1716 10H31C29.8954 10 29 10.8954 29 12V22H30V12C30 11.4477 30.4477 11 31 11H50.1716C50.4368 11 50.6911 11.1054 50.8787 11.2929L61.7071 22.1213C61.8946 22.3089 62 22.5632 62 22.8284V53C62 53.5523 61.5523 54 61 54Z" fill="#BA4C3F"/>
<rect x="29" y="41" width="1" height="3" rx="0.5" fill="#BA4C3F"/>
<rect x="29" y="20" width="1" height="3" rx="0.5" fill="#BA4C3F"/>
<path d="M50 10L62 22H54C51.7909 22 50 20.2091 50 18V10Z" fill="#BA4C3F"/>
<path d="M39.6772 33.9464H37.3861V32.2713H39.6772C39.9895 32.2713 40.2426 32.2198 40.4367 32.1168C40.6308 32.0137 40.7722 31.8716 40.8608 31.6902C40.9536 31.5048 41 31.2967 41 31.0659C41 30.8187 40.9536 30.59 40.8608 30.3798C40.7722 30.1696 40.6308 30.0007 40.4367 29.8729C40.2426 29.7411 39.9895 29.6751 39.6772 29.6751H38.2215V37H36V28H39.6772C40.4156 28 41.0506 28.1319 41.5823 28.3956C42.1181 28.6593 42.5295 29.022 42.8165 29.4835C43.1034 29.9409 43.2468 30.4643 43.2468 31.0536C43.2468 31.6346 43.1034 32.1415 42.8165 32.5742C42.5295 33.0069 42.1181 33.3448 41.5823 33.5879C41.0506 33.8269 40.4156 33.9464 39.6772 33.9464Z" fill="#BA4C3F"/>
<path d="M47.4367 37H45.3924L45.4051 35.331H47.4367C47.8587 35.331 48.2152 35.2321 48.5063 35.0343C48.8017 34.8365 49.0253 34.5419 49.1772 34.1504C49.3333 33.7548 49.4114 33.2685 49.4114 32.6916V32.3022C49.4114 31.8695 49.3671 31.4904 49.2785 31.1648C49.1941 30.8352 49.0675 30.5611 48.8987 30.3427C48.73 30.1202 48.519 29.9533 48.2658 29.842C48.0169 29.7308 47.73 29.6751 47.4051 29.6751H45.3544V28H47.4051C48.0295 28 48.6013 28.1051 49.1203 28.3152C49.6435 28.5213 50.0949 28.818 50.4747 29.2054C50.8587 29.5886 51.154 30.044 51.3608 30.5714C51.5717 31.0948 51.6772 31.6758 51.6772 32.3146V32.6916C51.6772 33.3262 51.5717 33.9073 51.3608 34.4348C51.154 34.9622 50.8608 35.4176 50.481 35.8008C50.1013 36.1841 49.6519 36.4808 49.1329 36.6909C48.6181 36.897 48.0527 37 47.4367 37ZM46.6646 28V37H44.443V28H46.6646Z" fill="#BA4C3F"/>
<path d="M55.057 28V37H52.8354V28H55.057ZM58.6392 31.7459V33.4148H54.4241V31.7459H58.6392ZM59 28V29.6751H54.4241V28H59Z" fill="#BA4C3F"/>
<path fill-rule="evenodd" clip-rule="evenodd" d="M24.6572 25C24.6719 25 25 25 25 25.5V27H32C32.5523 27 33 27.4477 33 28V29C33 29.5523 32.5523 30 32 30H25V31.5C25 32 24.6947 32 24.6572 32C24.4913 32 24.1921 31.9113 24.0262 31.7363L21.3035 29.0833C20.8988 28.6566 20.8988 28.3434 21.3035 27.9167L24.0262 25.2637C24.1921 25.0887 24.4913 25 24.6572 25Z" fill="#333333"/>
<path fill-rule="evenodd" clip-rule="evenodd" d="M29.3428 39C29.3281 39 29 39 29 38.5L29 37L22 37C21.4477 37 21 36.5523 21 36L21 35C21 34.4477 21.4477 34 22 34L29 34L29 32.5C29 32 29.3053 32 29.3428 32C29.5087 32 29.8079 32.0887 29.9738 32.2637L32.6965 34.9167C33.1012 35.3434 33.1012 35.6566 32.6965 36.0833L29.9738 38.7363C29.8079 38.9113 29.5087 39 29.3428 39Z" fill="#BA4C3F"/>
</svg>
