<svg width="32" height="32" viewBox="0 0 32 32" fill="none" xmlns="http://www.w3.org/2000/svg"><rect width="32" height="32" rx="2" fill="#066EFF"/><path fill-rule="evenodd" clip-rule="evenodd" d="m20.4708 14.8323 2.2903-2.2903c.9121-.9122.9121-2.391 0-3.30312-.9121-.91212-2.3909-.91212-3.3031 0l-2.2953 2.29532.0015-.003.0006-.0021-.0003-.0013-.0018-.0036-.0051.0049-1.8014 1.8014c-.9949-.9949-.9949-2.6079 0-3.60281l2.2953-2.29532c1.9099-1.90983 5.0063-1.90983 6.9161 0 1.9098 1.90983 1.9098 5.00623 0 6.91613l-2.2903 2.2903c-.9977.9976-2.6152.9976-3.6128 0l1.8063-1.8065Zm-8.9416 2.3354L9.23888 19.458c-.91212.9122-.91212 2.391 0 3.3031.91212.9121 2.39092.9121 3.30302 0l2.2954-2.2953-.0015.003-.0006.0021.0003.0013.0018.0036.0051-.0049 1.8014-1.8014c.9949.9949.9949 2.6079 0 3.6028l-2.2953 2.2953c-1.9099 1.9098-5.00631 1.9098-6.91613 0-1.90983-1.9098-1.90983-5.0062 0-6.9161l2.29033-2.2903c.9977-.9977 2.6152-.9977 3.6128 0l-1.8063 1.8065Zm1.5419 3.5677 7.6643-7.6643-1.8065-1.8065-7.6643 7.6643 1.8065 1.8065Z" fill="#fff"/></svg>