<svg width="48" height="48" viewBox="0 0 48 48" fill="none" xmlns="http://www.w3.org/2000/svg">
<rect width="48" height="48" rx="4" fill="#F08705"/>
<path fill-rule="evenodd" clip-rule="evenodd" d="M18 11C18 9.89543 18.8954 9 20 9H28C29.1046 9 30 9.89543 30 11V18C30 18.7073 29.6328 19.3289 29.0787 19.6845L33.9924 28H38C39.1046 28 40 28.8954 40 30V37C40 38.1046 39.1046 39 38 39H30C28.8954 39 28 38.1046 28 37V30C28 28.8954 28.8954 28 30 28H31.3258L26.5985 20H21.846L17.1187 28H18C19.1046 28 20 28.8954 20 30V37C20 38.1046 19.1046 39 18 39H10C8.89543 39 8 38.1046 8 37V30C8 28.8954 8.89543 28 10 28H14.452L19.2623 19.8595C18.5228 19.5659 18 18.844 18 18V11Z" fill="white"/>
</svg>
