<svg width="32" height="32" viewBox="0 0 32 32" fill="none" xmlns="http://www.w3.org/2000/svg">
<rect x="6" y="6" width="20" height="20" rx="3" fill="#FE951F"/>
<path fill-rule="evenodd" clip-rule="evenodd" d="M13.1432 10.8573C13.1432 9.75273 14.0386 8.8573 15.1432 8.8573H16.8575C17.962 8.8573 18.8575 9.75273 18.8575 10.8573V11.6192C18.8575 12.5172 18.2657 13.2769 17.4509 13.5297L19.9768 17.9047H21.1431C22.2477 17.9047 23.1431 18.8002 23.1431 19.9047V20.6666C23.1431 21.7712 22.2477 22.6666 21.1431 22.6666H19.4289C18.3243 22.6666 17.4289 21.7712 17.4289 20.6666V19.9047C17.4289 18.9777 18.0597 18.1979 18.9155 17.9712L16.4028 13.6192H15.5978L13.0851 17.9713C13.9409 18.1979 14.5717 18.9777 14.5717 19.9047V20.6666C14.5717 21.7712 13.6763 22.6666 12.5717 22.6666H10.8574C9.75285 22.6666 8.85742 21.7712 8.85742 20.6666V19.9047C8.85742 18.8002 9.75285 17.9047 10.8574 17.9047H12.0238L14.5497 13.5297C13.7349 13.2769 13.1432 12.5171 13.1432 11.6192V10.8573Z" fill="white"/>
</svg>
