<svg width="48" height="48" viewBox="0 0 48 48" fill="none" xmlns="http://www.w3.org/2000/svg">
<rect width="48" height="48" rx="4" fill="#0FA1DA"/>
<rect x="12" y="6" width="4" height="11" rx="2" fill="white" stroke="white" stroke-width="2"/>
<path d="M8 15V15C8 18.3137 10.6863 21 14 21V21C17.3137 21 20 18.3137 20 15V15" stroke="white" stroke-width="2" stroke-linecap="round"/>
<rect x="13" y="21" width="2" height="7" fill="white"/>
<rect x="10" y="27" width="8" height="2" rx="1" fill="white"/>
<rect x="25" y="26" width="16" height="2" fill="white"/>
<path d="M27 43H39V42L34.6364 41H33H31.3636L27 42V43Z" fill="white"/>
<rect x="31" y="27" width="4" height="16" fill="white"/>
<path d="M25 26H28L26 31H25V26Z" fill="white"/>
<path d="M41 26H38L40 31H41V26Z" fill="white"/>
<path d="M25 10H27C30.3137 10 33 12.6863 33 16V19" stroke="white" stroke-width="2" stroke-linecap="round"/>
<path d="M30 17L33 20L36 17" stroke="white" stroke-width="2" stroke-linecap="round"/>
</svg>
