<svg width="16" height="16" viewBox="0 0 16 16" fill="none" xmlns="http://www.w3.org/2000/svg">
<rect width="16" height="16" rx="3" fill="#FE951F"/>
<path fill-rule="evenodd" clip-rule="evenodd" d="M5.7147 4.19053C5.7147 3.13856 6.5675 2.28577 7.61947 2.28577H8.38137C9.43334 2.28577 10.2861 3.13856 10.2861 4.19053C10.2861 4.98167 9.8038 5.66016 9.11716 5.94798L11.1817 9.52386H11.8099C12.8619 9.52386 13.7147 10.3767 13.7147 11.4286C13.7147 12.4806 12.8619 13.3334 11.8099 13.3334H11.048C9.99607 13.3334 9.14328 12.4806 9.14328 11.4286C9.14328 10.6144 9.65422 9.91942 10.373 9.64694L8.32244 6.09529H7.6784L5.62785 9.64694C6.34662 9.91942 6.85756 10.6144 6.85756 11.4286C6.85756 12.4806 6.00477 13.3334 4.9528 13.3334H4.1909C3.13892 13.3334 2.28613 12.4806 2.28613 11.4286C2.28613 10.3767 3.13892 9.52386 4.19089 9.52386H4.81914L6.88368 5.94798C6.19704 5.66016 5.7147 4.98167 5.7147 4.19053Z" fill="white"/>
</svg>
