<svg width="48" height="48" viewBox="0 0 48 48" fill="none" xmlns="http://www.w3.org/2000/svg">
<path d="M44.5394 39H3.46061C1.55405 39 0 37.4221 0 35.4863V12.5137C0 10.5779 1.55405 9 3.46061 9H44.5394C46.446 9 48 10.5779 48 12.5137V35.4787C48 37.4221 46.4535 38.9924 44.5394 38.9924V39ZM11 32V23L16 28L21 23V31.9634L25 32V16.0351H21L16 21.5L11 16H7V32H11ZM43 23.9992H38V16.0351H33V23.9992L28 24L35.5 32L43 23.9992Z" fill="#333333"/>
<path d="M0 3C0 1.34315 1.34315 0 3 0H45C46.6569 0 48 1.34315 48 3V12H0V3Z" fill="#333333"/>
<path d="M0 36H48V45C48 46.6569 46.6569 48 45 48H3C1.34315 48 0 46.6569 0 45V36Z" fill="#333333"/>
</svg>
